<svg width="29" height="29" viewBox="0 0 29 29" fill="none" xmlns="http://www.w3.org/2000/svg">
<path d="M14.3333 19.3333L19.3333 14.3333M19.3333 14.3333L14.3333 9.33333M19.3333 14.3333H1M9.33333 6.41431V6.33366C9.33333 4.46682 9.33333 3.5327 9.69664 2.81966C10.0162 2.19245 10.5258 1.68289 11.153 1.36331C11.866 1 12.8002 1 14.667 1H22.3337C24.2005 1 25.1326 1 25.8457 1.36331C26.4729 1.68289 26.9841 2.19245 27.3037 2.81966C27.6667 3.532 27.6667 4.46499 27.6667 6.32818V22.3393C27.6667 24.2025 27.6667 25.1341 27.3037 25.8465C26.9841 26.4737 26.4729 26.9841 25.8457 27.3037C25.1333 27.6667 24.2017 27.6667 22.3385 27.6667H14.6615C12.7983 27.6667 11.8653 27.6667 11.153 27.3037C10.5258 26.9841 10.0162 26.4732 9.69664 25.846C9.33333 25.1329 9.33333 24.2002 9.33333 22.3333V22.25" stroke="white" stroke-width="2" stroke-linecap="round" stroke-linejoin="round"/>
</svg>
