<svg width="19" height="24" viewBox="0 0 19 24" fill="none" xmlns="http://www.w3.org/2000/svg">
<path d="M5.83333 17.9167H13.0833M5.83333 14.2917H13.0833M10.6671 1.00105C10.5517 1 10.4218 1 10.2736 1H4.8669C3.51344 1 2.83621 1 2.31925 1.2634C1.86453 1.4951 1.49509 1.86453 1.2634 2.31925C1 2.83621 1 3.51344 1 4.8669V18.8836C1 20.237 1 20.9134 1.2634 21.4304C1.4951 21.8851 1.86453 22.2552 2.31925 22.4869C2.83571 22.75 3.51213 22.75 4.86297 22.75L14.0537 22.75C15.4045 22.75 16.08 22.75 16.5964 22.4869C17.0512 22.2552 17.4218 21.8851 17.6535 21.4304C17.9167 20.9139 17.9167 20.2385 17.9167 18.8877V8.64353C17.9167 8.49531 17.9165 8.36544 17.9155 8.25M10.6671 1.00105C11.012 1.0042 11.2294 1.017 11.4378 1.06703C11.6844 1.12623 11.9207 1.22386 12.137 1.35636C12.3808 1.50577 12.5901 1.71511 13.0078 2.13281L16.7844 5.90944C17.2024 6.3274 17.4102 6.53581 17.5597 6.77969C17.6922 6.99592 17.7902 7.23168 17.8494 7.47827C17.8994 7.68666 17.9123 7.90507 17.9155 8.25M10.6671 1.00105L10.6667 4.38359C10.6667 5.73705 10.6667 6.41352 10.9301 6.93047C11.1618 7.38519 11.5312 7.75516 11.9859 7.98686C12.5024 8.25 13.1788 8.25 14.5296 8.25H17.9155" stroke="white" stroke-width="2" stroke-linecap="round" stroke-linejoin="round"/>
</svg>
